<svg width="16" height="16" viewBox="0 0 16 16" fill="none" xmlns="http://www.w3.org/2000/svg">
<path fill-rule="evenodd" clip-rule="evenodd" d="M9.78241 3.20245C8.6319 2.93257 7.43454 2.93257 6.28403 3.20245C4.788 3.55337 3.61988 4.72148 3.26896 6.21751C2.99908 7.36803 2.99908 8.56539 3.26896 9.7159C3.32271 9.94507 3.39564 10.1665 3.48599 10.3786L4.1805 9.68404C5.41991 8.44463 7.42939 8.44463 8.6688 9.68404L9.32008 10.3353L9.33147 10.3239C10.2541 9.40128 11.6969 9.34805 12.6804 10.1198C12.726 9.98821 12.7652 9.85344 12.7975 9.7159C13.0674 8.56538 13.0674 7.36803 12.7975 6.21752C12.4466 4.72148 11.2784 3.55337 9.78241 3.20245ZM13.432 11.3618C13.6701 10.9381 13.8514 10.4775 13.9658 9.98994C14.2779 8.65918 14.2779 7.27424 13.9658 5.94347C13.5108 4.00373 11.9962 2.48916 10.0565 2.03416C8.72569 1.722 7.34075 1.722 6.00998 2.03416C4.07024 2.48916 2.55567 4.00373 2.10067 5.94347C1.78851 7.27423 1.78851 8.65918 2.10067 9.98995C2.55567 11.9297 4.07024 13.4443 6.00999 13.8993C7.34075 14.2114 8.72569 14.2114 10.0565 13.8993C11.414 13.5808 12.5633 12.7434 13.2869 11.6044C13.3558 11.5345 13.4044 11.4509 13.432 11.3618ZM12.1002 11.213C11.5919 10.6587 10.7178 10.6346 10.18 11.1725L10.1686 11.1838L11.127 12.1422C11.5011 11.8887 11.8301 11.5744 12.1002 11.213ZM9.96994 12.6822L7.82027 10.5326C7.04949 9.76179 5.79981 9.76179 5.02902 10.5326L4.13631 11.4253C4.68533 12.0656 5.43143 12.531 6.28403 12.731C7.43454 13.0008 8.6319 13.0008 9.78241 12.731C9.84552 12.7162 9.90804 12.6999 9.96994 12.6822Z" fill="currentColor"/>
<path d="M9.53413 4.90196C9.6102 4.58829 10.0563 4.58829 10.1324 4.90196L10.3417 5.76505C10.3688 5.87704 10.4563 5.96448 10.5682 5.99164L11.4313 6.20092C11.745 6.27698 11.745 6.7231 11.4313 6.79916L10.5682 7.00844C10.4563 7.0356 10.3688 7.12304 10.3417 7.23503L10.1324 8.09812C10.0563 8.41179 9.6102 8.41179 9.53413 8.09812L9.32485 7.23503C9.29769 7.12304 9.21025 7.0356 9.09826 7.00844L8.23517 6.79916C8.21557 6.7944 8.19719 6.7882 8.18003 6.78074C7.92273 6.66878 7.9411 6.27223 8.23517 6.20092L9.09826 5.99164C9.21025 5.96448 9.29769 5.87704 9.32485 5.76505L9.53413 4.90196Z" fill="currentColor"/>
<path d="M14.6666 14C14.6666 14.3682 14.3681 14.6667 13.9999 14.6667C13.6317 14.6667 13.3333 14.3682 13.3333 14C13.3333 13.6319 13.6317 13.3334 13.9999 13.3334C14.3681 13.3334 14.6666 13.6319 14.6666 14Z" fill="currentColor"/>
<path d="M14.6666 2.00004C14.6666 2.36823 14.3681 2.66671 13.9999 2.66671C13.6317 2.66671 13.3333 2.36823 13.3333 2.00004C13.3333 1.63185 13.6317 1.33337 13.9999 1.33337C14.3681 1.33337 14.6666 1.63185 14.6666 2.00004Z" fill="currentColor"/>
<path d="M2.66659 14C2.66659 14.3682 2.36811 14.6667 1.99992 14.6667C1.63173 14.6667 1.33325 14.3682 1.33325 14C1.33325 13.6319 1.63173 13.3334 1.99992 13.3334C2.36811 13.3334 2.66659 13.6319 2.66659 14Z" fill="currentColor"/>
<path d="M2.66659 2.00004C2.66659 2.36823 2.36811 2.66671 1.99992 2.66671C1.63173 2.66671 1.33325 2.36823 1.33325 2.00004C1.33325 1.63185 1.63173 1.33337 1.99992 1.33337C2.36811 1.33337 2.66659 1.63185 2.66659 2.00004Z" fill="currentColor"/>
</svg>
