<svg width="17" height="16" viewBox="0 0 17 16" fill="none" xmlns="http://www.w3.org/2000/svg">
<path fill-rule="evenodd" clip-rule="evenodd" d="M6.5 1.33337H3.16667C2.43029 1.33337 1.83334 1.93033 1.83334 2.66671V6.00004C1.83334 6.73642 2.43029 7.33337 3.16667 7.33337H6.5C7.23638 7.33337 7.83334 6.73642 7.83334 6.00004V2.66671C7.83334 1.93033 7.23638 1.33337 6.5 1.33337ZM3.16667 6.00004V2.66671H6.5V6.00004H3.16667Z" fill="currentColor"/>
<path fill-rule="evenodd" clip-rule="evenodd" d="M13.8333 8.66671H10.5C9.76362 8.66671 9.16667 9.26366 9.16667 10V13.3334C9.16667 14.0698 9.76362 14.6667 10.5 14.6667H13.8333C14.5697 14.6667 15.1667 14.0698 15.1667 13.3334V10C15.1667 9.26366 14.5697 8.66671 13.8333 8.66671ZM10.5 13.3334V10H13.8333V13.3334H10.5Z" fill="currentColor"/>
<path fill-rule="evenodd" clip-rule="evenodd" d="M15.1667 4.33337C15.1667 5.99023 13.8235 7.33337 12.1667 7.33337C10.5098 7.33337 9.16667 5.99023 9.16667 4.33337C9.16667 2.67652 10.5098 1.33337 12.1667 1.33337C13.8235 1.33337 15.1667 2.67652 15.1667 4.33337ZM10.5 4.33337C10.5 5.25385 11.2462 6.00004 12.1667 6.00004C13.0871 6.00004 13.8333 5.25385 13.8333 4.33337C13.8333 3.4129 13.0871 2.66671 12.1667 2.66671C11.2462 2.66671 10.5 3.4129 10.5 4.33337Z" fill="currentColor"/>
<path fill-rule="evenodd" clip-rule="evenodd" d="M4.8342 12.5727L2.92427 14.4826C2.67627 14.7306 2.27094 14.7306 2.02227 14.4826L2.0196 14.4793C1.7716 14.2313 1.7716 13.8253 2.0196 13.5766L3.92893 11.6673L2.01987 9.75797C1.77187 9.50997 1.77187 9.10397 2.01987 8.85597L2.02254 8.85263C2.2712 8.60463 2.67654 8.60463 2.92454 8.85263L4.8342 10.762L6.7436 8.85263C6.9916 8.60463 7.3976 8.60463 7.6456 8.85263L7.64894 8.85597C7.89694 9.10397 7.89694 9.50997 7.64894 9.75797L5.7396 11.6673L7.6492 13.5766C7.8972 13.8253 7.8972 14.2313 7.6492 14.4793L7.64587 14.4826C7.39787 14.7306 6.99187 14.7306 6.74387 14.4826L4.8342 12.5727Z" fill="currentColor"/>
</svg>
