<svg width="14" height="10" viewBox="0 0 14 10" fill="none" xmlns="http://www.w3.org/2000/svg">
<path fill-rule="evenodd" clip-rule="evenodd" d="M8.99862 0.333008C6.42195 0.333008 4.33195 2.42301 4.33195 4.99967C4.33195 7.57701 6.42195 9.66634 8.99862 9.66634C11.576 9.66634 13.6653 7.57701 13.6653 4.99967C13.6653 2.42301 11.576 0.333008 8.99862 0.333008ZM8.99862 1.66634C10.8373 1.66634 12.332 3.16167 12.332 4.99967C12.332 6.83834 10.8373 8.33301 8.99862 8.33301C7.16062 8.33301 5.66528 6.83834 5.66528 4.99967C5.66528 3.16167 7.16062 1.66634 8.99862 1.66634Z" fill="currentColor"/>
<path d="M3.53615 0.572155C1.63938 1.19648 0.333252 2.97025 0.333252 4.9974C0.333252 7.02455 1.63938 8.79832 3.53615 9.42265C3.88588 9.53776 4.26272 9.34757 4.37783 8.99783C4.49295 8.6481 4.30275 8.27127 3.95302 8.15615C2.59895 7.71046 1.66659 6.44427 1.66659 4.9974C1.66659 3.55053 2.59895 2.28434 3.95302 1.83865C4.30275 1.72353 4.49295 1.3467 4.37783 0.996968C4.26272 0.647236 3.88588 0.457041 3.53615 0.572155Z" fill="currentColor"/>
</svg>
