<svg width="16" height="16" viewBox="0 0 16 16" fill="none" xmlns="http://www.w3.org/2000/svg">
<path fill-rule="evenodd" clip-rule="evenodd" d="M5.33333 4.66665C5.33333 4.29846 5.63181 3.99999 6 3.99999H10C10.3682 3.99999 10.6667 4.29846 10.6667 4.66665C10.6667 5.03484 10.3682 5.33332 10 5.33332H8.66667V10.6667H10C10.3682 10.6667 10.6667 10.9651 10.6667 11.3333C10.6667 11.7015 10.3682 12 10 12H6C5.63181 12 5.33333 11.7015 5.33333 11.3333C5.33333 10.9651 5.63181 10.6667 6 10.6667H7.33333V5.33332H6C5.63181 5.33332 5.33333 5.03484 5.33333 4.66665Z" fill="currentColor"/>
<path d="M12.6667 14.6667C12.6667 15.0348 12.3682 15.3333 12 15.3333C11.6318 15.3333 11.3333 15.0348 11.3333 14.6667C11.3333 14.2985 11.6318 14 12 14C12.3682 14 12.6667 14.2985 12.6667 14.6667Z" fill="currentColor"/>
<path d="M15.3333 12C15.3333 12.3682 15.0349 12.6667 14.6667 12.6667C14.2985 12.6667 14 12.3682 14 12C14 11.6318 14.2985 11.3333 14.6667 11.3333C15.0349 11.3333 15.3333 11.6318 15.3333 12Z" fill="currentColor"/>
<path fill-rule="evenodd" clip-rule="evenodd" d="M6.00308 14.8764C5.88721 15.1869 5.54161 15.3446 5.23115 15.2288C3.2202 14.4782 1.60488 12.9201 0.779823 10.9485C0.651898 10.6429 0.796 10.2914 1.10168 10.1634C1.40737 10.0355 1.75887 10.1796 1.8868 10.4853C2.58414 12.1516 3.95103 13.4701 5.65076 14.1045C5.96122 14.2204 6.11895 14.566 6.00308 14.8764Z" fill="currentColor"/>
<path fill-rule="evenodd" clip-rule="evenodd" d="M14.8769 6.01383C14.5665 6.12994 14.2208 5.97247 14.1047 5.66211C13.4653 3.95301 12.1314 2.58046 10.4462 1.88832C10.1397 1.76242 9.99327 1.41188 10.1192 1.10535C10.2451 0.798831 10.5956 0.652405 10.9021 0.778303C12.8951 1.59687 14.4718 3.21863 15.2286 5.24163C15.3447 5.55199 15.1872 5.89771 14.8769 6.01383Z" fill="currentColor"/>
<path d="M2.47369 1.05663C2.55667 0.714439 3.04333 0.714439 3.12631 1.05663L3.35462 1.99818C3.38425 2.12035 3.47964 2.21574 3.60181 2.24536L4.54336 2.47368C4.88555 2.55665 4.88555 3.04332 4.54336 3.1263L3.60181 3.35461C3.58654 3.35831 3.57168 3.36304 3.55732 3.36872C3.45682 3.4085 3.38054 3.49489 3.35462 3.60179L3.12631 4.54334C3.12112 4.56473 3.11436 4.58478 3.10622 4.60349C2.98408 4.8842 2.55148 4.86415 2.47369 4.54335L2.24538 3.60179C2.24353 3.59416 2.24142 3.58663 2.23906 3.57921C2.20372 3.46796 2.11273 3.38238 1.99819 3.35461L1.05664 3.1263C1.03525 3.12111 1.0152 3.11435 0.996491 3.1062C0.71579 2.98406 0.73584 2.55147 1.05664 2.47368L1.99819 2.24536C2.12036 2.21574 2.21575 2.12035 2.24538 1.99818L2.47369 1.05663Z" fill="currentColor"/>
</svg>
