<svg width="16" height="16" viewBox="0 0 16 16" fill="none" xmlns="http://www.w3.org/2000/svg">
<path d="M4.29308 2.55601C4.47286 1.81461 5.52731 1.81461 5.70709 2.55601L6.20176 4.59604C6.26595 4.86075 6.47263 5.06742 6.73733 5.13161L8.77736 5.62629C9.51877 5.80607 9.51877 6.86052 8.77736 7.0403L6.73733 7.53497C6.47263 7.59916 6.26595 7.80584 6.20176 8.07054L5.70709 10.1106C5.52731 10.852 4.47286 10.852 4.29308 10.1106L3.7984 8.07054C3.73421 7.80584 3.52754 7.59916 3.26283 7.53498L1.2228 7.0403C0.481397 6.86052 0.481396 5.80607 1.2228 5.62629L3.26283 5.13161C3.52754 5.06742 3.73421 4.86075 3.7984 4.59604L4.29308 2.55601Z" fill="currentColor"/>
<path d="M10.2317 9.67548C10.3423 9.21923 10.9912 9.21923 11.1018 9.67548L11.4062 10.9309C11.4457 11.0938 11.5729 11.221 11.7358 11.2605L12.9912 11.5649C13.4475 11.6755 13.4475 12.3244 12.9912 12.435L11.7358 12.7395C11.5729 12.779 11.4457 12.9061 11.4062 13.069L11.1018 14.3244C10.9912 14.7807 10.3423 14.7807 10.2317 14.3244L9.92725 13.069C9.88775 12.9061 9.76057 12.779 9.59767 12.7395L8.34227 12.435C7.88602 12.3244 7.88602 11.6755 8.34227 11.5649L9.59767 11.2605C9.76057 11.221 9.88775 11.0938 9.92725 10.9309L10.2317 9.67548Z" fill="currentColor"/>
<path d="M12.3812 2.47452C12.4538 2.17511 12.8797 2.17511 12.9523 2.47452L13.152 3.29838C13.178 3.40528 13.2614 3.48874 13.3683 3.51466L14.1922 3.71444C14.4916 3.78704 14.4916 4.21288 14.1922 4.28548L13.3683 4.48525C13.2614 4.51118 13.178 4.59464 13.152 4.70154L12.9523 5.5254C12.8797 5.82481 12.4538 5.82481 12.3812 5.5254L12.1815 4.70154C12.1555 4.59464 12.0721 4.51118 11.9652 4.48525L11.1413 4.28548C10.8419 4.21288 10.8419 3.78704 11.1413 3.71444L11.9652 3.51467C12.0721 3.48874 12.1555 3.40528 12.1815 3.29838L12.3812 2.47452Z" fill="currentColor"/>
<path fill-rule="evenodd" clip-rule="evenodd" d="M12.6667 2.62069L12.5037 3.2931C12.4385 3.56188 12.2287 3.77173 11.9599 3.83691L11.2875 3.99996L11.9599 4.16301C12.2287 4.22818 12.4385 4.43804 12.5037 4.70682L12.6667 5.37923L12.8298 4.70682C12.895 4.43804 13.1048 4.22818 13.3736 4.16301L14.046 3.99996L13.3736 3.83691C13.1048 3.77173 12.895 3.56188 12.8298 3.2931L12.6667 2.62069ZM12.9931 2.2566C12.9101 1.91441 12.4234 1.91441 12.3404 2.2566L12.1121 3.19815C12.0825 3.32032 11.9871 3.41571 11.8649 3.44534L10.9234 3.67365C10.5812 3.75663 10.5812 4.24329 10.9234 4.32627L11.8649 4.55458C11.9871 4.58421 12.0825 4.6796 12.1121 4.80177L12.3404 5.74332C12.4234 6.08551 12.9101 6.08551 12.9931 5.74332L13.2214 4.80177C13.251 4.6796 13.3464 4.58421 13.4686 4.55458L14.4101 4.32627C14.7523 4.24329 14.7523 3.75663 14.4101 3.67365L13.4686 3.44534C13.3464 3.41571 13.251 3.32032 13.2214 3.19815L12.9931 2.2566Z" fill="currentColor"/>
<path d="M4.66675 15.3333C4.29856 15.3333 4.00008 15.0348 4.00008 14.6666C4.00008 14.2984 4.29856 14 4.66675 14C5.03494 14 5.33342 14.2984 5.33342 14.6666C5.33342 15.0348 5.03494 15.3333 4.66675 15.3333Z" fill="currentColor"/>
<path d="M1.33341 12.6666C0.965225 12.6666 0.666748 12.3681 0.666748 12C0.666748 11.6318 0.965225 11.3333 1.33341 11.3333C1.7016 11.3333 2.00008 11.6318 2.00008 12C2.00008 12.3681 1.7016 12.6666 1.33341 12.6666Z" fill="currentColor"/>
<path d="M8.66675 1.99996C8.29856 1.99996 8.00008 1.70148 8.00008 1.33329C8.00008 0.965103 8.29856 0.666626 8.66675 0.666626C9.03494 0.666626 9.33342 0.965103 9.33342 1.33329C9.33342 1.70148 9.03494 1.99996 8.66675 1.99996Z" fill="currentColor"/>
<path d="M14.6667 9.33329C14.2986 9.33329 14.0001 9.03482 14.0001 8.66663C14.0001 8.29844 14.2986 7.99996 14.6667 7.99996C15.0349 7.99996 15.3334 8.29844 15.3334 8.66663C15.3334 9.03482 15.0349 9.33329 14.6667 9.33329Z" fill="currentColor"/>
</svg>
