<svg width="16" height="16" viewBox="0 0 16 16" fill="none" xmlns="http://www.w3.org/2000/svg">
<path fill-rule="evenodd" clip-rule="evenodd" d="M7.57024 1.13405C7.82302 0.955317 8.17698 0.955317 8.42976 1.13405L14.7298 5.58859C14.9003 5.70916 15 5.89453 15 6.09091V13.0909C15 13.5972 14.7788 14.0828 14.3849 14.4408C13.9911 14.7989 13.457 15 12.9 15H3.1C2.54305 15 2.0089 14.7989 1.61508 14.4408C1.22125 14.0828 1 13.5972 1 13.0909V6.09091C1 5.89453 1.09973 5.70916 1.27024 5.58859L7.57024 1.13405ZM2.4 6.40214V13.0909C2.4 13.2597 2.47375 13.4215 2.60503 13.5409C2.7363 13.6602 2.91435 13.7273 3.1 13.7273H12.9C13.0856 13.7273 13.2637 13.6602 13.395 13.5409C13.5263 13.4215 13.6 13.2597 13.6 13.0909V6.40214L8 2.44255L2.4 6.40214Z" fill="currentColor"/>
<path fill-rule="evenodd" clip-rule="evenodd" d="M5.2 8C5.2 7.64855 5.5134 7.36364 5.9 7.36364H10.1C10.4866 7.36364 10.8 7.64855 10.8 8V14.3636C10.8 14.7151 10.4866 15 10.1 15C9.7134 15 9.4 14.7151 9.4 14.3636V8.63636H6.6V14.3636C6.6 14.7151 6.2866 15 5.9 15C5.5134 15 5.2 14.7151 5.2 14.3636V8Z" fill="currentColor"/>
</svg>
