<svg width="25" height="24" viewBox="0 0 25 24" fill="none" xmlns="http://www.w3.org/2000/svg">
<path d="M4.18064 19.681L5.78928 21.2896C6.29727 21.7976 7.01692 22.094 7.69424 22.094C8.37156 22.094 9.09121 21.7976 9.5992 21.2896L19.5754 11.3135L20.0834 6.48752C20.168 5.89486 19.7024 5.38687 19.1097 5.38687C19.0674 5.38687 19.0251 5.38687 18.9827 5.38687L14.1568 5.89486L4.18064 15.871C3.12233 16.9294 3.12233 18.6227 4.18064 19.681ZM15.0881 7.84217L17.9244 7.54584L17.6281 10.3821L12.8165 15.236L11.5042 16.5484L8.92188 13.9661L10.2342 12.6537L15.0881 7.84217ZM5.61995 17.3104L7.48258 15.4054L10.0649 17.9877L8.1599 19.8503C7.99057 20.0197 7.7789 20.062 7.69424 20.062C7.60957 20.062 7.39791 20.0197 7.22858 19.8503L5.61995 18.2417C5.36595 17.9877 5.36595 17.5644 5.61995 17.3104Z" fill="currentColor"/>
<path d="M4.84738 1.51328C5.01333 0.828906 5.98667 0.828906 6.15262 1.51328L6.60924 3.39639C6.66849 3.64073 6.85927 3.83151 7.10361 3.89075L8.98672 4.34738C9.67109 4.51333 9.67109 5.48667 8.98672 5.65262L7.10361 6.10924C6.85927 6.16849 6.66849 6.35927 6.60924 6.60361L6.15262 8.48672C5.98667 9.17109 5.01333 9.17109 4.84738 8.48672L4.39076 6.60361C4.33151 6.35927 4.14073 6.16849 3.89639 6.10924L2.01328 5.65262C1.32891 5.48667 1.32891 4.51333 2.01328 4.34738L3.89639 3.89076C4.14073 3.83151 4.33151 3.64073 4.39075 3.39639L4.84738 1.51328Z" fill="currentColor"/>
<path fill-rule="evenodd" clip-rule="evenodd" d="M5.5 2.24146L5.1739 3.58629C5.04355 4.12384 4.62384 4.54355 4.08629 4.6739L2.74146 5L4.08629 5.3261C4.62384 5.45645 5.04355 5.87616 5.1739 6.41371L5.5 7.75854L5.8261 6.41371C5.95645 5.87616 6.37616 5.45645 6.91371 5.3261L8.25854 5L6.91371 4.6739C6.37616 4.54355 5.95645 4.12384 5.8261 3.58629L5.5 2.24146ZM6.15262 1.51328C5.98667 0.828906 5.01333 0.828906 4.84738 1.51328L4.39075 3.39639C4.33151 3.64073 4.14073 3.83151 3.89639 3.89076L2.01328 4.34738C1.32891 4.51333 1.32891 5.48667 2.01328 5.65262L3.89639 6.10924C4.14073 6.16849 4.33151 6.35927 4.39076 6.60361L4.84738 8.48672C5.01333 9.17109 5.98667 9.17109 6.15262 8.48672L6.60924 6.60361C6.66849 6.35927 6.85927 6.16849 7.10361 6.10924L8.98672 5.65262C9.67109 5.48667 9.67109 4.51333 8.98672 4.34738L7.10361 3.89075C6.85927 3.83151 6.66849 3.64073 6.60924 3.39639L6.15262 1.51328Z" fill="currentColor"/>
<path d="M20.0105 17.385C20.135 16.8717 20.865 16.8717 20.9895 17.385L21.3319 18.7973C21.3764 18.9805 21.5195 19.1236 21.7027 19.1681L23.115 19.5105C23.6283 19.635 23.6283 20.365 23.115 20.4895L21.7027 20.8319C21.5195 20.8764 21.3764 21.0195 21.3319 21.2027L20.9895 22.615C20.865 23.1283 20.135 23.1283 20.0105 22.615L19.6681 21.2027C19.6236 21.0195 19.4805 20.8764 19.2973 20.8319L17.885 20.4895C17.3717 20.365 17.3717 19.635 17.885 19.5105L19.2973 19.1681C19.4805 19.1236 19.6236 18.9805 19.6681 18.7973L20.0105 17.385Z" fill="currentColor"/>
<path fill-rule="evenodd" clip-rule="evenodd" d="M20.5 17.9311L20.2554 18.9397C20.1577 19.3429 19.8429 19.6577 19.4397 19.7554L18.4311 20L19.4397 20.2446C19.8429 20.3423 20.1577 20.6571 20.2554 21.0603L20.5 22.0689L20.7446 21.0603C20.8423 20.6571 21.1571 20.3423 21.5603 20.2446L22.5689 20L21.5603 19.7554C21.1571 19.6577 20.8423 19.3429 20.7446 18.9397L20.5 17.9311ZM20.9895 17.385C20.865 16.8717 20.135 16.8717 20.0105 17.385L19.6681 18.7973C19.6236 18.9805 19.4805 19.1236 19.2973 19.1681L17.885 19.5105C17.3717 19.635 17.3717 20.365 17.885 20.4895L19.2973 20.8319C19.4805 20.8764 19.6236 21.0195 19.6681 21.2027L20.0105 22.615C20.135 23.1283 20.865 23.1283 20.9895 22.615L21.3319 21.2027C21.3764 21.0195 21.5195 20.8764 21.7027 20.8319L23.115 20.4895C23.6283 20.365 23.6283 19.635 23.115 19.5105L21.7027 19.1681C21.5195 19.1236 21.3764 18.9805 21.3319 18.7973L20.9895 17.385Z" fill="currentColor"/>
<path d="M23.5 2C23.5 2.55228 23.0523 3 22.5 3C21.9477 3 21.5 2.55228 21.5 2C21.5 1.44772 21.9477 1 22.5 1C23.0523 1 23.5 1.44772 23.5 2Z" fill="currentColor"/>
<path d="M13.5 2C13.5 2.55228 13.0523 3 12.5 3C11.9477 3 11.5 2.55228 11.5 2C11.5 1.44772 11.9477 1 12.5 1C13.0523 1 13.5 1.44772 13.5 2Z" fill="currentColor"/>
<path d="M4.5 12C4.5 12.5523 4.05228 13 3.5 13C2.94772 13 2.5 12.5523 2.5 12C2.5 11.4477 2.94772 11 3.5 11C4.05228 11 4.5 11.4477 4.5 12Z" fill="currentColor"/>
</svg>
