<svg width="16" height="16" viewBox="0 0 16 16" fill="none" xmlns="http://www.w3.org/2000/svg">
<g clip-path="url(#clip0_53_825)">
<path fill-rule="evenodd" clip-rule="evenodd" d="M9.71707 3.21838C8.71472 2.21604 7.0896 2.21604 6.08725 3.21839L3.65307 5.65258L3.65641 5.65592C3.12774 6.22842 2.79467 6.82381 2.72319 7.46624C2.64338 8.18358 2.90179 8.84622 3.34686 9.4644C3.38754 9.5209 3.40293 9.59584 3.38799 9.66816C3.37346 9.73844 3.33578 9.78445 3.29057 9.80831C2.64591 10.1486 1.88102 10.649 1.48045 11.3174C1.26952 11.6693 1.1483 12.0873 1.22152 12.5485C1.29369 13.0031 1.54354 13.4287 1.93938 13.8245C2.34148 14.2266 2.77377 14.4777 3.2332 14.5596C3.69624 14.6421 4.12465 14.5416 4.49507 14.3509C5.20461 13.9857 5.75995 13.2603 6.14283 12.6457C6.16817 12.6051 6.21417 12.5701 6.28722 12.5573C6.36319 12.544 6.44705 12.5598 6.51361 12.603C7.07598 12.9684 7.69974 13.1591 8.37677 13.0475C8.97693 12.9486 9.54971 12.6233 10.108 12.1075L10.1113 12.1108L12.5455 9.67662C13.5478 8.67428 13.5478 7.04915 12.5455 6.04681L9.71707 3.21838ZM9.30584 11.3053L4.45857 6.45807C4.05203 6.90701 3.88452 7.27742 3.84957 7.59156C3.81117 7.93678 3.9211 8.3223 4.26661 8.8022C4.72742 9.44223 4.57145 10.4137 3.81965 10.8106C3.20223 11.1365 2.68253 11.5163 2.45258 11.9C2.34825 12.0741 2.31772 12.2252 2.34083 12.3708C2.36499 12.5229 2.45955 12.7419 2.74077 13.0231C3.02397 13.3063 3.25647 13.4125 3.43202 13.4438C3.60397 13.4745 3.78074 13.4439 3.97637 13.3432C4.39892 13.1257 4.8192 12.627 5.18093 12.0464C5.61436 11.3507 6.5251 11.2589 7.13108 11.6527C7.51842 11.9043 7.85949 11.9841 8.19249 11.9292C8.4992 11.8787 8.86738 11.7027 9.30584 11.3053ZM6.88864 4.01977C7.44839 3.46002 8.35593 3.46002 8.91568 4.01977L11.7441 6.8482C12.3039 7.40795 12.3039 8.31548 11.7441 8.87524L10.1113 10.508L5.25584 5.65257L6.88864 4.01977Z" fill="currentColor"/>
<path d="M13.0071 0.923267C13.0901 0.581079 13.5767 0.581079 13.6597 0.923267L13.888 1.86482C13.9177 1.98699 14.0131 2.08238 14.1352 2.112L15.0768 2.34032C15.419 2.42329 15.419 2.90996 15.0768 2.99294L14.1352 3.22125C14.0131 3.25087 13.9177 3.34626 13.888 3.46843L13.6597 4.40999C13.5767 4.75217 13.0901 4.75217 13.0071 4.40999L12.7788 3.46843C12.7492 3.34626 12.6538 3.25087 12.5316 3.22125L11.5901 2.99294C11.2479 2.90996 11.2479 2.42329 11.5901 2.34032L12.5316 2.112C12.6538 2.08238 12.7492 1.98699 12.7788 1.86482L13.0071 0.923267Z" fill="currentColor"/>
<path fill-rule="evenodd" clip-rule="evenodd" d="M13.3334 1.28735L13.1704 1.95977C13.1052 2.22855 12.8953 2.4384 12.6266 2.50358L11.9541 2.66663L12.6266 2.82968C12.8953 2.89485 13.1052 3.10471 13.1704 3.37348L13.3334 4.0459L13.4965 3.37348C13.5616 3.10471 13.7715 2.89485 14.0403 2.82968L14.7127 2.66663L14.0403 2.50358C13.7715 2.4384 13.5616 2.22855 13.4965 1.95977L13.3334 1.28735ZM13.6597 0.923267C13.5767 0.581079 13.0901 0.581079 13.0071 0.923267L12.7788 1.86482C12.7492 1.98699 12.6538 2.08238 12.5316 2.112L11.5901 2.34032C11.2479 2.42329 11.2479 2.90996 11.5901 2.99294L12.5316 3.22125C12.6538 3.25087 12.7492 3.34626 12.7788 3.46843L13.0071 4.40999C13.0901 4.75217 13.5767 4.75217 13.6597 4.40999L13.888 3.46843C13.9177 3.34626 14.0131 3.25087 14.1352 3.22125L15.0768 2.99294C15.419 2.90996 15.419 2.42329 15.0768 2.34032L14.1352 2.112C14.0131 2.08238 13.9177 1.98699 13.888 1.86482L13.6597 0.923267Z" fill="currentColor"/>
<path d="M2.00008 3.33329C2.00008 3.70148 1.7016 3.99996 1.33341 3.99996C0.965225 3.99996 0.666748 3.70148 0.666748 3.33329C0.666748 2.9651 0.965225 2.66663 1.33341 2.66663C1.7016 2.66663 2.00008 2.9651 2.00008 3.33329Z" fill="currentColor"/>
<path d="M4.66675 1.33329C4.66675 1.70148 4.36827 1.99996 4.00008 1.99996C3.63189 1.99996 3.33341 1.70148 3.33341 1.33329C3.33341 0.965103 3.63189 0.666626 4.00008 0.666626C4.36827 0.666626 4.66675 0.965103 4.66675 1.33329Z" fill="currentColor"/>
<path d="M13.3948 12.2138C13.464 11.9287 13.8695 11.9287 13.9387 12.2138L14.1289 12.9985C14.1536 13.1003 14.2331 13.1798 14.3349 13.2044L15.1195 13.3947C15.4047 13.4638 15.4047 13.8694 15.1195 13.9386L14.3349 14.1288C14.2331 14.1535 14.1536 14.233 14.1289 14.3348L13.9387 15.1194C13.8695 15.4046 13.464 15.4046 13.3948 15.1194L13.2046 14.3348C13.1799 14.233 13.1004 14.1535 12.9986 14.1288L12.2139 13.9386C11.9288 13.8694 11.9288 13.4638 12.2139 13.3947L12.9986 13.2044C13.1004 13.1798 13.1799 13.1003 13.2046 12.9985L13.3948 12.2138Z" fill="currentColor"/>
<path fill-rule="evenodd" clip-rule="evenodd" d="M13.6667 12.5172L13.5309 13.0776C13.4766 13.3016 13.3017 13.4764 13.0777 13.5308L12.5174 13.6666L13.0777 13.8025C13.3017 13.8568 13.4766 14.0317 13.5309 14.2557L13.6667 14.816L13.8026 14.2557C13.8569 14.0317 14.0318 13.8568 14.2558 13.8025L14.8161 13.6666L14.2558 13.5308C14.0318 13.4764 13.8569 13.3016 13.8026 13.0776L13.6667 12.5172ZM13.9387 12.2138C13.8695 11.9287 13.464 11.9287 13.3948 12.2138L13.2046 12.9985C13.1799 13.1003 13.1004 13.1798 12.9986 13.2044L12.2139 13.3947C11.9288 13.4638 11.9288 13.8694 12.2139 13.9386L12.9986 14.1288C13.1004 14.1535 13.1799 14.233 13.2046 14.3348L13.3948 15.1194C13.464 15.4046 13.8695 15.4046 13.9387 15.1194L14.1289 14.3348C14.1536 14.233 14.2331 14.1535 14.3349 14.1288L15.1195 13.9386C15.4047 13.8694 15.4047 13.4638 15.1195 13.3947L14.3349 13.2044C14.2331 13.1798 14.1536 13.1003 14.1289 12.9985L13.9387 12.2138Z" fill="currentColor"/>
</g>
<defs>
<clipPath id="clip0_53_825">
<rect width="16" height="16" fill="currentColor"/>
</clipPath>
</defs>
</svg>
