<svg width="16" height="16" viewBox="0 0 16 16" fill="none" xmlns="http://www.w3.org/2000/svg">
<path fill-rule="evenodd" clip-rule="evenodd" d="M8.00008 2.46671C6.70386 2.46671 5.66903 3.55328 5.66675 4.86602L5.66675 7.60473C5.66675 8.9117 6.70536 9.98884 8.00008 9.98884H8.22865C9.52338 9.98884 10.562 8.9117 10.562 7.60473V4.87035C10.562 3.55562 9.52631 2.46671 8.22865 2.46671H8.00008ZM6.90484 7.75978V4.71471C6.97835 4.1466 7.45403 3.71931 8.00008 3.71931H8.22865C8.77471 3.71931 9.25038 4.1466 9.32389 4.71471V7.75978C9.24991 8.31388 8.77752 8.73624 8.22865 8.73624H8.00008C7.45123 8.73624 6.97882 8.31388 6.90484 7.75978Z" fill="currentColor"/>
<path d="M4.4191 8.19457C4.06938 8.19457 3.80005 8.48291 3.80005 8.82087C3.80005 9.84311 4.37324 10.7422 5.1351 11.3911C5.75115 11.9158 6.51709 12.039 7.27789 12.1614C7.35682 12.174 7.43569 12.1867 7.51433 12.1999V13.2141H5.63814C5.28843 13.2141 5.0191 13.5024 5.0191 13.8404C5.0191 14.1784 5.28843 14.4667 5.63814 14.4667H10.6286C10.9783 14.4667 11.2477 14.1784 11.2477 13.8404C11.2477 13.5024 10.9783 13.2141 10.6286 13.2141H8.75243V12.1999C8.83107 12.1867 8.90995 12.174 8.98887 12.1614C9.74967 12.039 10.5156 11.9158 11.1317 11.3911C11.8935 10.7422 12.4667 9.84311 12.4667 8.82087C12.4667 8.48291 12.1974 8.19457 11.8477 8.19457C11.498 8.19457 11.2286 8.48291 11.2286 8.82087C11.2286 9.46132 10.8347 10.082 10.2155 10.5583C9.63562 11.0043 8.90547 11.0022 8.25713 11.0003C8.21552 11.0002 8.17425 11 8.13338 11C8.09251 11 8.05124 11.0002 8.00964 11.0003C7.3613 11.0022 6.63115 11.0043 6.05122 10.5583C5.43202 10.082 5.03814 9.46132 5.03814 8.82087C5.03814 8.48291 4.76881 8.19457 4.4191 8.19457Z" fill="currentColor"/>
<path d="M13.0071 1.59002C13.0901 1.24783 13.5767 1.24783 13.6597 1.59001L13.888 2.53157C13.9177 2.65374 14.0131 2.74913 14.1352 2.77875L15.0768 3.00706C15.419 3.09004 15.419 3.57671 15.0768 3.65968L14.1352 3.888C14.0131 3.91762 13.9177 4.01301 13.888 4.13518L13.6597 5.07673C13.5767 5.41892 13.0901 5.41892 13.0071 5.07673L12.7788 4.13518C12.7492 4.01301 12.6538 3.91762 12.5316 3.888L11.5901 3.65968C11.5687 3.6545 11.5486 3.64774 11.5299 3.63959C11.2492 3.51745 11.2693 3.08485 11.5901 3.00706L12.5316 2.77875C12.6538 2.74913 12.7492 2.65374 12.7788 2.53157L13.0071 1.59002Z" fill="currentColor"/>
<path d="M2.06149 11.5472C2.13064 11.2621 2.53619 11.2621 2.60534 11.5472L2.7956 12.3319C2.82029 12.4337 2.89978 12.5132 3.00159 12.5379L3.78621 12.7281C4.07137 12.7973 4.07137 13.2028 3.78621 13.272L3.00159 13.4622C2.98886 13.4653 2.97648 13.4693 2.96452 13.474C2.88076 13.5071 2.8172 13.5791 2.7956 13.6682L2.60534 14.4528C2.60102 14.4707 2.59538 14.4874 2.5886 14.503C2.48681 14.7369 2.12631 14.7202 2.06149 14.4528L1.87123 13.6682C1.86969 13.6618 1.86793 13.6556 1.86597 13.6494C1.83652 13.5567 1.76069 13.4854 1.66524 13.4622L0.880616 13.272C0.862793 13.2676 0.846085 13.262 0.83049 13.2552C0.596573 13.1534 0.613281 12.7929 0.880615 12.7281L1.66524 12.5379C1.76705 12.5132 1.84654 12.4337 1.87123 12.3319L2.06149 11.5472Z" fill="currentColor"/>
<path d="M4.66675 2.00004C4.66675 2.36823 4.36827 2.66671 4.00008 2.66671C3.63189 2.66671 3.33341 2.36823 3.33341 2.00004C3.33341 1.63185 3.63189 1.33337 4.00008 1.33337C4.36827 1.33337 4.66675 1.63185 4.66675 2.00004Z" fill="currentColor"/>
<path d="M14.6667 14C14.6667 14.3682 14.3683 14.6667 14.0001 14.6667C13.6319 14.6667 13.3334 14.3682 13.3334 14C13.3334 13.6319 13.6319 13.3334 14.0001 13.3334C14.3683 13.3334 14.6667 13.6319 14.6667 14Z" fill="currentColor"/>
<path d="M14.6667 11.3334C14.6667 11.7016 14.3683 12 14.0001 12C13.6319 12 13.3334 11.7016 13.3334 11.3334C13.3334 10.9652 13.6319 10.6667 14.0001 10.6667C14.3683 10.6667 14.6667 10.9652 14.6667 11.3334Z" fill="currentColor"/>
<path d="M2.66675 4.00004C2.66675 4.36823 2.36827 4.66671 2.00008 4.66671C1.63189 4.66671 1.33341 4.36823 1.33341 4.00004C1.33341 3.63185 1.63189 3.33337 2.00008 3.33337C2.36827 3.33337 2.66675 3.63185 2.66675 4.00004Z" fill="currentColor"/>
</svg>
