<svg width="14" height="14" viewBox="0 0 14 14" fill="none" xmlns="http://www.w3.org/2000/svg">
<path d="M0.612084 9.39815C0.722804 8.66469 1.45012 8.18765 2.17361 8.37373L3.92458 8.82393C4.24332 8.90595 4.43492 9.22931 4.35232 9.54561C4.26969 9.86194 3.94357 10.0514 3.62478 9.96944L2.60427 9.70674C3.42763 10.9209 4.98441 12.669 7.66384 12.4675C9.01274 12.366 10.183 11.7742 11.0476 11.0661C11.479 10.7128 11.8255 10.3369 12.073 9.99385C12.3273 9.64134 12.4515 9.35876 12.4851 9.19112C12.5494 8.87067 12.8634 8.66259 13.1863 8.72627C13.5092 8.79003 13.7191 9.10122 13.6551 9.42159C13.5751 9.82034 13.3468 10.2619 13.0427 10.6833C12.7317 11.1144 12.3134 11.5637 11.8074 11.9782C10.797 12.8058 9.39959 13.5234 7.75369 13.6472C4.47756 13.8935 2.58454 11.776 1.66091 10.4353L1.51931 11.3786C1.47054 11.7017 1.16712 11.9248 0.841576 11.8767C0.515959 11.8283 0.290968 11.5269 0.339623 11.2038L0.612084 9.39815ZM9.66677 9.00069C10.0348 9.00082 10.3327 9.29867 10.3328 9.6667C10.3328 10.0348 10.0348 10.3336 9.66677 10.3337C9.29858 10.3337 8.99978 10.0349 8.99978 9.6667C8.99987 9.29859 9.29864 9.00069 9.66677 9.00069ZM6.67361 5.25655C6.75676 4.91476 7.24277 4.91478 7.32595 5.25655L7.55447 6.19795C7.58409 6.32012 7.67937 6.41637 7.80154 6.446L8.74294 6.67354C9.08513 6.75651 9.08513 7.24388 8.74294 7.32686L7.80154 7.5544C7.67937 7.58403 7.58409 7.68028 7.55447 7.80244L7.32595 8.74385C7.24277 9.08562 6.75676 9.08564 6.67361 8.74385L6.44509 7.80244C6.41547 7.68027 6.32019 7.58402 6.19802 7.5544L5.25662 7.32686C5.23523 7.32167 5.21478 7.31449 5.19607 7.30635C4.91563 7.18406 4.93591 6.7513 5.25662 6.67354L6.19802 6.446C6.32019 6.41637 6.41547 6.32012 6.44509 6.19795L6.67361 5.25655ZM6.24587 0.353226C9.52112 0.1069 11.4137 2.22331 12.3377 3.56416L12.4802 2.62178C12.529 2.2986 12.8333 2.07532 13.159 2.12373C13.4843 2.17234 13.7086 2.47362 13.6599 2.79659L13.3875 4.60225C13.2768 5.33555 12.5503 5.81243 11.8269 5.62666L10.075 5.17647C9.75633 5.0944 9.56467 4.77104 9.64724 4.45479C9.72987 4.13846 10.056 3.94897 10.3748 4.03096L11.3943 4.29268C10.5707 3.07861 9.01427 1.33142 6.33572 1.53291C4.98684 1.63442 3.81652 2.22618 2.95193 2.93428C2.52061 3.28755 2.17402 3.6635 1.92654 4.00655C1.6723 4.35904 1.54809 4.64165 1.51443 4.80928C1.45015 5.12977 1.13623 5.33789 0.813256 5.27412C0.490407 5.21037 0.280486 4.89917 0.344506 4.57881C0.424479 4.18007 0.652789 3.73852 0.956811 3.31709C1.2679 2.88588 1.68692 2.43679 2.19314 2.02217C3.20357 1.19462 4.60004 0.477033 6.24587 0.353226ZM4.33279 3.6667C4.70098 3.6667 4.99978 3.9655 4.99978 4.33369C4.99969 4.70181 4.70092 5.00069 4.33279 5.00069C3.96483 5.00047 3.66686 4.70168 3.66677 4.33369C3.66677 3.96564 3.96478 3.66692 4.33279 3.6667Z" fill="currentColor"/>
</svg>
