<svg width="13" height="14" viewBox="0 0 13 14" fill="none" xmlns="http://www.w3.org/2000/svg">
<path fill-rule="evenodd" clip-rule="evenodd" d="M1.66659 5.00004V9.00004H0.999919C0.631729 9.00004 0.333252 9.29852 0.333252 9.66671C0.333252 10.0349 0.631729 10.3334 0.999919 10.3334H1.66659V12.3334C1.66659 13.0698 2.26354 13.6667 2.99992 13.6667H10.9999C11.7363 13.6667 12.3333 13.0698 12.3333 12.3334V1.66671C12.3333 0.930328 11.7363 0.333374 10.9999 0.333374H2.99992C2.26354 0.333374 1.66659 0.930328 1.66659 1.66671V3.66671H0.999919C0.631729 3.66671 0.333252 3.96518 0.333252 4.33337C0.333252 4.70156 0.631729 5.00004 0.999919 5.00004H1.66659ZM3.66659 9.00004H2.99992V5.00004H3.66659C4.03478 5.00004 4.33325 4.70156 4.33325 4.33337C4.33325 3.96518 4.03478 3.66671 3.66659 3.66671H2.99992V1.66671H10.9999V12.3334H2.99992V10.3334H3.66659C4.03478 10.3334 4.33325 10.0349 4.33325 9.66671C4.33325 9.29852 4.03478 9.00004 3.66659 9.00004Z" fill="currentColor"/>
</svg>
